<svg xmlns="http://www.w3.org/2000/svg" width="23" height="23" viewBox="0 0 23 23">
  <path fill-rule="evenodd" clip-rule="evenodd" d="M11.6178 1C13.0373 1.0507 14.5075 1.0507 15.9269 1.10139C17.1943 1.15208 18.3603 1.35487 19.4756 2.0139C20.8951 2.87572 21.7569 4.14309 22.0611 5.76533C22.2131 6.72853 22.2638 7.74243 22.3145 8.70564C22.3652 10.8348 22.3145 12.964 22.3145 15.0932C22.3145 16.2085 22.2638 17.3238 21.909 18.3884C21.1992 20.4669 19.7291 21.7342 17.5999 22.1398C16.6367 22.3426 15.6228 22.3426 14.6596 22.3933C12.5304 22.444 10.4519 22.3933 8.32264 22.3933C7.20735 22.3933 6.09206 22.3426 5.02746 21.9877C2.94895 21.278 1.68157 19.8078 1.27601 17.6786C1.07323 16.7154 1.07323 15.7015 1.02253 14.7383C0.971834 12.6091 1.02253 10.48 1.02253 8.35077C1.02253 7.23549 1.07323 6.1202 1.42809 5.05559C2.13783 2.9771 3.60799 1.70973 5.73719 1.30417C6.7004 1.1014 7.71431 1.1014 8.67752 1.0507C9.64073 1 10.6039 1 11.6178 1ZM20.3883 11.4939C20.3376 11.4939 20.3883 11.4939 20.3883 11.4939C20.3376 10.6321 20.3376 9.82097 20.3376 8.95916C20.3376 8.14805 20.2869 7.33692 20.1855 6.52581C19.9827 4.70078 18.9181 3.4841 17.1438 3.12924C16.2313 2.92646 15.2173 2.92646 14.3048 2.92646C12.4798 2.87577 10.7055 2.87577 8.88044 2.92646C7.96792 2.92646 7.05541 2.97715 6.19358 3.12924C4.67273 3.38271 3.60813 4.24453 3.15187 5.76538C2.99979 6.27233 2.94909 6.77928 2.8984 7.28623C2.8477 9.21264 2.8477 11.139 2.8477 13.0655C2.8477 14.2821 2.8984 15.5495 2.99979 16.7662C3.15187 18.5912 4.26717 19.8586 6.0922 20.1627C7.00471 20.3148 7.96792 20.3655 8.93113 20.3655C10.7055 20.4162 12.4798 20.3655 14.3048 20.3655C15.116 20.3655 15.9271 20.3148 16.7382 20.2134C17.4986 20.1627 18.2084 19.9093 18.8167 19.4023C19.8306 18.5912 20.1855 17.5266 20.2362 16.3099C20.3376 14.7891 20.3376 13.1668 20.3883 11.4939Z" fill="#535353"/>
  <path fill-rule="evenodd" clip-rule="evenodd" d="M17.0928 11.6962C17.0928 14.7379 14.6594 17.1712 11.6177 17.1712C8.57595 17.1712 6.14258 14.7379 6.14258 11.6455C6.14258 8.65453 8.62664 6.22119 11.6684 6.22119C14.6594 6.22119 17.0928 8.65453 17.0928 11.6962ZM11.6176 15.2448C13.544 15.2448 15.1662 13.6226 15.1662 11.6962C15.1662 9.76976 13.544 8.14752 11.6176 8.14752C9.64044 8.14752 8.06888 9.76976 8.06888 11.6962C8.01819 13.6226 9.64044 15.2448 11.6176 15.2448Z" fill="#535353"/>
  <path d="M18.5638 5.96758C18.5638 6.67731 18.0062 7.28566 17.2964 7.28566C16.5867 7.28566 15.9784 6.67731 16.0291 5.96758C16.0291 5.25785 16.5867 4.7002 17.2964 4.7002C18.0062 4.7002 18.5638 5.25784 18.5638 5.96758Z" fill="#535353"/>
</svg>