<svg xmlns="http://www.w3.org/2000/svg" width="23" height="23" viewBox="0 0 23 23" >
  <path fill-rule="evenodd" clip-rule="evenodd" d="M22.3376 13.4801V21.3592H17.7366V13.9977C17.7366 12.1573 17.104 10.8921 15.4361 10.8921C14.1709 10.8921 13.4232 11.7548 13.0781 12.5599C12.9631 12.8475 12.9056 13.2501 12.9056 13.6526V21.3592H8.3046C8.3046 21.3592 8.36211 8.87915 8.3046 7.61389H12.9056V9.5693C12.9056 9.5693 12.9056 9.62679 12.8481 9.62679H12.9056V9.5693C13.5382 8.6491 14.5734 7.26881 17.0465 7.26881C20.0371 7.26881 22.3376 9.28173 22.3376 13.4801V13.4801ZM3.58806 1C2.03522 1 1 2.03522 1 3.35799C1 4.68076 1.97771 5.71599 3.53054 5.71599H3.58806C5.1984 5.71599 6.17611 4.68077 6.17611 3.35799C6.1186 2.03522 5.14089 1 3.58806 1V1ZM1.23065 21.3593H5.77413V7.61391H1.23065V21.3593Z" fill="#535353"/>
</svg>