<svg xmlns="http://www.w3.org/2000/svg" width="65" height="65" viewBox="0 0 65 65" fill="none">
  <path d="M57.5516 44.3078C55.1683 44.3078 54.112 43.3869 52.6224 42.0869C50.9703 40.6786 48.912 38.8911 45.0391 38.8911C41.1391 38.8911 39.1078 40.6786 37.4557 42.0869C35.9662 43.3869 34.8829 44.3078 32.4995 44.3078C30.1433 44.3078 29.0599 43.3869 27.5703 42.0869C25.9183 40.6786 23.86 38.8911 19.987 38.8911C16.087 38.8911 14.0287 40.6786 12.3766 42.0869C10.8871 43.3869 9.83078 44.3078 7.44745 44.3078C6.33703 44.3078 5.4162 45.2286 5.4162 46.339C5.4162 47.4765 6.33703 48.3703 7.44745 48.3703C11.3474 48.3703 13.3787 46.6099 15.0307 45.1744C16.5203 43.8744 17.6037 42.9536 19.987 42.9536C22.3704 42.9536 23.4266 43.8744 24.9162 45.1744C26.5683 46.6099 28.6266 48.3703 32.4995 48.3703C36.3995 48.3703 38.4579 46.6099 40.1099 45.1744C41.5995 43.8744 42.6558 42.9536 45.0391 42.9536C47.3954 42.9536 48.4787 43.8744 49.9683 45.1744C51.6204 46.6099 53.6787 48.3703 57.5516 48.3703C58.662 48.3703 59.5829 47.4765 59.5829 46.339C59.5829 45.2286 58.662 44.3078 57.5516 44.3078Z" fill="white"/>
  <path d="M57.5516 33.1506C55.1683 33.1506 54.112 32.2026 52.6224 30.9297C50.9703 29.4943 48.912 27.7339 45.0391 27.7339C41.1391 27.7339 39.1078 29.4943 37.4557 30.9297C35.9662 32.2026 34.8829 33.1506 32.4995 33.1506C30.1433 33.1506 29.0599 32.2026 27.5703 30.9297C25.9183 29.4943 23.86 27.7339 19.987 27.7339C16.087 27.7339 14.0287 29.4943 12.3766 30.9297C10.8871 32.2026 9.83078 33.1506 7.44745 33.1506C6.33703 33.1506 5.4162 34.0443 5.4162 35.1818C5.4162 36.2922 6.33703 37.2131 7.44745 37.2131C11.3474 37.2131 13.3787 35.4256 15.0307 33.9901C16.5203 32.7172 17.6037 31.7964 19.987 31.7964C22.3704 31.7964 23.4266 32.7172 24.9162 33.9901C26.5683 35.4256 28.6266 37.2131 32.4995 37.2131C36.3995 37.2131 38.4579 35.4256 40.1099 33.9901C41.5995 32.7172 42.6558 31.7964 45.0391 31.7964C47.3954 31.7964 48.4787 32.7172 49.9683 33.9901C51.6204 35.4256 53.6787 37.2131 57.5516 37.2131C58.662 37.2131 59.5829 36.2922 59.5829 35.1818C59.5829 34.0443 58.662 33.1506 57.5516 33.1506Z" fill="white"/>
  <path d="M7.44745 26.1086C11.3474 26.1086 13.3787 24.3211 15.0307 22.9127C16.5203 21.6127 17.6037 20.6919 19.987 20.6919C22.3704 20.6919 23.4266 21.6127 24.9162 22.9127C26.5683 24.3211 28.6266 26.1086 32.4995 26.1086C36.3995 26.1086 38.4579 24.3211 40.1099 22.9127C41.5995 21.6127 42.6558 20.6919 45.0391 20.6919C47.3954 20.6919 48.4787 21.6127 49.9683 22.9127C51.6204 24.3211 53.6787 26.1086 57.5516 26.1086C58.662 26.1086 59.5829 25.1877 59.5829 24.0773C59.5829 22.9398 58.662 22.0461 57.5516 22.0461C55.1683 22.0461 54.112 21.1252 52.6224 19.8252C50.9703 18.3898 48.912 16.6294 45.0391 16.6294C41.1391 16.6294 39.1078 18.3898 37.4557 19.8252C35.9662 21.1252 34.8829 22.0461 32.4995 22.0461C30.1433 22.0461 29.0599 21.1252 27.5703 19.8252C25.9183 18.3898 23.86 16.6294 19.987 16.6294C16.087 16.6294 14.0287 18.3898 12.3766 19.8252C10.8871 21.1252 9.83078 22.0461 7.44745 22.0461C6.33703 22.0461 5.4162 22.9398 5.4162 24.0773C5.4162 25.1877 6.33703 26.1086 7.44745 26.1086Z" fill="white"/>
</svg>