<svg xmlns="http://www.w3.org/2000/svg" width="53" height="53" viewBox="0 0 53 53" fill="none">
  <path d="M46.927 36.1281C44.9836 36.1281 44.1224 35.3773 42.9078 34.3173C41.5607 33.1689 39.8824 31.7114 36.7245 31.7114C33.5445 31.7114 31.8882 33.1689 30.5411 34.3173C29.3265 35.3773 28.4432 36.1281 26.4999 36.1281C24.5786 36.1281 23.6953 35.3773 22.4807 34.3173C21.1336 33.1689 19.4553 31.7114 16.2974 31.7114C13.1174 31.7114 11.4391 33.1689 10.092 34.3173C8.87741 35.3773 8.01615 36.1281 6.07281 36.1281C5.1674 36.1281 4.41656 36.8789 4.41656 37.7843C4.41656 38.7118 5.1674 39.4406 6.07281 39.4406C9.25281 39.4406 10.909 38.0052 12.2561 36.8348C13.4707 35.7748 14.3541 35.0239 16.2974 35.0239C18.2407 35.0239 19.102 35.7748 20.3166 36.8348C21.6637 38.0052 23.342 39.4406 26.4999 39.4406C29.6799 39.4406 31.3582 38.0052 32.7053 36.8348C33.9199 35.7748 34.7812 35.0239 36.7245 35.0239C38.6457 35.0239 39.5291 35.7748 40.7437 36.8348C42.0908 38.0052 43.7691 39.4406 46.927 39.4406C47.8324 39.4406 48.5832 38.7118 48.5832 37.7843C48.5832 36.8789 47.8324 36.1281 46.927 36.1281Z" fill="#141416"/>
  <path d="M46.927 27.0304C44.9836 27.0304 44.1224 26.2575 42.9078 25.2196C41.5607 24.0492 39.8824 22.6138 36.7245 22.6138C33.5445 22.6138 31.8882 24.0492 30.5411 25.2196C29.3265 26.2575 28.4432 27.0304 26.4999 27.0304C24.5786 27.0304 23.6953 26.2575 22.4807 25.2196C21.1336 24.0492 19.4553 22.6138 16.2974 22.6138C13.1174 22.6138 11.4391 24.0492 10.092 25.2196C8.87741 26.2575 8.01615 27.0304 6.07281 27.0304C5.1674 27.0304 4.41656 27.7592 4.41656 28.6867C4.41656 29.5921 5.1674 30.3429 6.07281 30.3429C9.25281 30.3429 10.909 28.8854 12.2561 27.715C13.4707 26.6771 14.3541 25.9263 16.2974 25.9263C18.2407 25.9263 19.102 26.6771 20.3166 27.715C21.6637 28.8854 23.342 30.3429 26.4999 30.3429C29.6799 30.3429 31.3582 28.8854 32.7053 27.715C33.9199 26.6771 34.7812 25.9263 36.7245 25.9263C38.6457 25.9263 39.5291 26.6771 40.7437 27.715C42.0908 28.8854 43.7691 30.3429 46.927 30.3429C47.8324 30.3429 48.5832 29.5921 48.5832 28.6867C48.5832 27.7592 47.8324 27.0304 46.927 27.0304Z" fill="#141416"/>
  <path d="M6.07281 21.2887C9.25281 21.2887 10.909 19.8312 12.2561 18.6829C13.4707 17.6229 14.3541 16.8721 16.2974 16.8721C18.2407 16.8721 19.102 17.6229 20.3166 18.6829C21.6637 19.8312 23.342 21.2887 26.4999 21.2887C29.6799 21.2887 31.3582 19.8312 32.7053 18.6829C33.9199 17.6229 34.7812 16.8721 36.7245 16.8721C38.6457 16.8721 39.5291 17.6229 40.7437 18.6829C42.0908 19.8312 43.7691 21.2887 46.927 21.2887C47.8324 21.2887 48.5832 20.5379 48.5832 19.6325C48.5832 18.705 47.8324 17.9762 46.927 17.9762C44.9836 17.9762 44.1224 17.2254 42.9078 16.1654C41.5607 14.995 39.8824 13.5596 36.7245 13.5596C33.5445 13.5596 31.8882 14.995 30.5411 16.1654C29.3265 17.2254 28.4432 17.9762 26.4999 17.9762C24.5786 17.9762 23.6953 17.2254 22.4807 16.1654C21.1336 14.995 19.4553 13.5596 16.2974 13.5596C13.1174 13.5596 11.4391 14.995 10.092 16.1654C8.87741 17.2254 8.01615 17.9762 6.07281 17.9762C5.1674 17.9762 4.41656 18.705 4.41656 19.6325C4.41656 20.5379 5.1674 21.2887 6.07281 21.2887Z" fill="#141416"/>
</svg>