<svg xmlns="http://www.w3.org/2000/svg" width="23" height="23" viewBox="0 0 23 23">
  <path fill-rule="evenodd" clip-rule="evenodd" d="M22.3371 5.05838C21.5338 5.40982 20.7305 5.66085 19.8268 5.76125C20.7305 5.209 21.4334 4.35552 21.7346 3.35143C20.8811 3.85348 19.9272 4.20491 18.9734 4.40572C18.1701 3.55225 17.0154 3 15.7602 3C13.3504 3 11.3924 4.95797 11.3924 7.36779C11.3924 7.71923 11.4426 8.07065 11.4928 8.37189C7.82787 8.17107 4.61475 6.46411 2.45594 3.80328C2.0543 4.45593 1.85348 5.209 1.85348 6.01227C1.85348 7.51841 2.60656 8.87393 3.81147 9.6772C3.1086 9.6772 2.40574 9.47639 1.80328 9.12495V9.17515C1.80328 11.2838 3.30942 13.0911 5.31762 13.4927C4.96618 13.5931 4.56455 13.6434 4.1629 13.6434C3.86168 13.6434 3.61065 13.5931 3.35963 13.543C3.91188 15.3001 5.51844 16.5552 7.47643 16.6054C5.97028 17.7601 4.1127 18.463 2.0543 18.463C1.70287 18.463 1.35144 18.463 1 18.4128C2.95799 19.6679 5.21721 20.3708 7.72745 20.3708C15.8104 20.3708 20.1783 13.6936 20.1783 7.92004C20.1783 7.71923 20.1783 7.51841 20.1783 7.36779C21.0317 6.71514 21.7848 5.91186 22.3371 5.05838Z" fill="#535353"/>
</svg>