<svg xmlns="http://www.w3.org/2000/svg" width="131" height="136" viewBox="0 0 131 136" fill="none">
  <path d="M15.6504 43.2944C32.4337 30.725 51.9741 23.0111 72.6827 28.6288C91.3747 33.6996 103.143 49.6303 90.5394 69.3318C84.5733 78.6581 71.8704 85.1861 61.8849 79.8735C50.7603 73.9549 59.5286 59.0165 66.6503 54.7085C83.2837 44.6463 106.696 49.3232 118.212 68.8671C131.849 92.0116 108.785 103.532 108.769 103.344" stroke="black" stroke-width="3.37884" stroke-miterlimit="1.5" stroke-linecap="round" stroke-linejoin="round"/>
  <path d="M19.2678 18.3819C19.877 20.8064 19.5253 23.2335 19.2858 25.677C18.5002 33.7006 15.3548 42.0307 9.71114 47.2931C17.1375 44.0369 27.7918 42.6188 34.537 48.3345" stroke="black" stroke-width="3.37884" stroke-miterlimit="1.5" stroke-linecap="round" stroke-linejoin="round"/>
</svg>